<?xml version="1.0" encoding="utf-8"?>
<!-- Generator: Adobe Illustrator 22.0.1, SVG Export Plug-In . SVG Version: 6.00 Build 0)  -->
<svg version="1.1" xmlns="http://www.w3.org/2000/svg" xmlns:xlink="http://www.w3.org/1999/xlink" x="0px" y="0px"
	 viewBox="0 0 128 128" style="enable-background:new 0 0 128 128;" xml:space="preserve">
<style type="text/css">
	.st0{fill:#FFFFFF;stroke:#1FADEC;stroke-width:5.912;stroke-miterlimit:10;}
	.st1{fill-rule:evenodd;clip-rule:evenodd;fill:#1FADEC;}
	.st2{fill:none;stroke:#1FADEC;stroke-width:1.1321;stroke-linecap:round;stroke-linejoin:round;stroke-miterlimit:10;}
	.st3{fill:#FFFFFF;stroke:#1FADEC;stroke-width:2.956;stroke-miterlimit:10;}
	.st4{fill:none;stroke:#1FADEC;stroke-width:0.566;stroke-linecap:round;stroke-linejoin:round;stroke-miterlimit:10;}
</style>
<g id="Layer_1">
	<path class="st0" d="M-364,182l16.7-60.6c-10.3-17.7-15.7-37.9-15.7-58.5C-363-1.5-310.3-54-245.5-54c31.4,0,60.9,12.2,83.1,34.3
		C-140.2,2.4-128,31.8-128,63c0,64.5-52.7,116.9-117.5,116.9c0,0,0,0,0,0h0c-19.7,0-39-4.9-56.2-14.2L-364,182z"/>
	<g id="WA_Logo">
		<g>
			<path class="st1" d="M-171.8-10.3c-19.7-19.6-45.9-30.4-73.8-30.4c-57.5,0-104.2,46.5-104.3,103.8c0,18.3,4.8,36.1,13.9,51.9
				l-14.8,53.8l55.3-14.4c15.2,8.3,32.4,12.6,49.8,12.6h0c0,0,0,0,0,0c57.5,0,104.2-46.5,104.3-103.8
				C-141.3,35.4-152.1,9.3-171.8-10.3z M-245.6,149.4L-245.6,149.4c-15.6,0-30.8-4.2-44.1-12l-3.2-1.9l-32.8,8.6l8.8-31.8l-2.1-3.3
				c-8.7-13.7-13.3-29.6-13.2-45.9c0-47.5,38.9-86.2,86.7-86.2c23.1,0,44.9,9,61.3,25.3c16.4,16.3,25.4,38,25.4,61
				C-158.9,110.7-197.8,149.4-245.6,149.4z M-198,84.8c-2.6-1.3-15.4-7.6-17.8-8.4c-2.4-0.9-4.1-1.3-5.9,1.3
				c-1.7,2.6-6.7,8.4-8.2,10.2c-1.5,1.7-3,1.9-5.6,0.6c-2.6-1.3-11-4-20.9-12.9c-7.7-6.9-13-15.4-14.5-18c-1.5-2.6-0.2-4,1.1-5.3
				c1.2-1.2,2.6-3,3.9-4.5c1.3-1.5,1.7-2.6,2.6-4.3c0.9-1.7,0.4-3.2-0.2-4.5c-0.7-1.3-5.9-14.1-8-19.3c-2.1-5.1-4.3-4.4-5.9-4.5
				c-1.5-0.1-3.3-0.1-5-0.1c-1.7,0-4.6,0.6-6.9,3.2c-2.4,2.6-9.1,8.9-9.1,21.6c0,12.8,9.3,25.1,10.6,26.8
				c1.3,1.7,18.4,27.9,44.5,39.1c6.2,2.7,11.1,4.3,14.9,5.5c6.2,2,11.9,1.7,16.4,1c5-0.7,15.4-6.3,17.6-12.3
				c2.2-6.1,2.2-11.2,1.5-12.3C-193.7,86.7-195.4,86.1-198,84.8z"/>
		</g>
		<g>
			<path class="st2" d="M-171.8-10.3c-19.7-19.6-45.9-30.4-73.8-30.4c-57.5,0-104.2,46.5-104.3,103.8c0,18.3,4.8,36.1,13.9,51.9
				l-14.8,53.8l55.3-14.4c15.2,8.3,32.4,12.6,49.8,12.6h0c0,0,0,0,0,0c57.5,0,104.2-46.5,104.3-103.8
				C-141.3,35.4-152.1,9.3-171.8-10.3z M-245.6,149.4L-245.6,149.4c-15.6,0-30.8-4.2-44.1-12l-3.2-1.9l-32.8,8.6l8.8-31.8l-2.1-3.3
				c-8.7-13.7-13.3-29.6-13.2-45.9c0-47.5,38.9-86.2,86.7-86.2c23.1,0,44.9,9,61.3,25.3c16.4,16.3,25.4,38,25.4,61
				C-158.9,110.7-197.8,149.4-245.6,149.4z M-198,84.8c-2.6-1.3-15.4-7.6-17.8-8.4c-2.4-0.9-4.1-1.3-5.9,1.3
				c-1.7,2.6-6.7,8.4-8.2,10.2c-1.5,1.7-3,1.9-5.6,0.6c-2.6-1.3-11-4-20.9-12.9c-7.7-6.9-13-15.4-14.5-18c-1.5-2.6-0.2-4,1.1-5.3
				c1.2-1.2,2.6-3,3.9-4.5c1.3-1.5,1.7-2.6,2.6-4.3c0.9-1.7,0.4-3.2-0.2-4.5c-0.7-1.3-5.9-14.1-8-19.3c-2.1-5.1-4.3-4.4-5.9-4.5
				c-1.5-0.1-3.3-0.1-5-0.1c-1.7,0-4.6,0.6-6.9,3.2c-2.4,2.6-9.1,8.9-9.1,21.6c0,12.8,9.3,25.1,10.6,26.8
				c1.3,1.7,18.4,27.9,44.5,39.1c6.2,2.7,11.1,4.3,14.9,5.5c6.2,2,11.9,1.7,16.4,1c5-0.7,15.4-6.3,17.6-12.3
				c2.2-6.1,2.2-11.2,1.5-12.3C-193.7,86.7-195.4,86.1-198,84.8z"/>
		</g>
	</g>
</g>
<g id="Layer_2">
	<path class="st3" d="M5,123l8.3-30.3c-5.1-8.9-7.8-18.9-7.8-29.2C5.5,31.2,31.9,5,64.2,5c15.7,0,30.5,6.1,41.6,17.1
		C116.9,33.2,123,47.9,123,63.5c0,32.2-26.4,58.5-58.8,58.5c0,0,0,0,0,0h0c-9.8,0-19.5-2.5-28.1-7.1L5,123z"/>
	<g id="WA_Logo_2_">
		<g>
			<path class="st1" d="M101.1,26.9c-9.8-9.8-22.9-15.2-36.9-15.2c-28.7,0-52.1,23.3-52.1,51.9c0,9.1,2.4,18.1,7,25.9l-7.4,26.9
				l27.6-7.2c7.6,4.1,16.2,6.3,24.9,6.3h0c0,0,0,0,0,0c28.7,0,52.1-23.3,52.1-51.9C116.4,49.7,110.9,36.7,101.1,26.9z M64.2,106.7
				L64.2,106.7c-7.8,0-15.4-2.1-22.1-6l-1.6-0.9L24.2,104l4.4-15.9l-1-1.6c-4.3-6.9-6.6-14.8-6.6-22.9c0-23.8,19.4-43.1,43.3-43.1
				c11.6,0,22.5,4.5,30.6,12.6c8.2,8.2,12.7,19,12.7,30.5C107.5,87.3,88.1,106.7,64.2,106.7z M88,74.4c-1.3-0.6-7.7-3.8-8.9-4.2
				c-1.2-0.4-2.1-0.6-2.9,0.6c-0.9,1.3-3.4,4.2-4.1,5.1c-0.8,0.9-1.5,1-2.8,0.3c-1.3-0.6-5.5-2-10.5-6.4c-3.9-3.4-6.5-7.7-7.2-9
				c-0.8-1.3-0.1-2,0.6-2.6c0.6-0.6,1.3-1.5,2-2.3c0.7-0.8,0.9-1.3,1.3-2.2c0.4-0.9,0.2-1.6-0.1-2.3c-0.3-0.6-2.9-7-4-9.6
				c-1.1-2.5-2.1-2.2-2.9-2.2c-0.8,0-1.6,0-2.5,0s-2.3,0.3-3.5,1.6c-1.2,1.3-4.6,4.4-4.6,10.8c0,6.4,4.7,12.5,5.3,13.4
				c0.7,0.9,9.2,14,22.3,19.6c3.1,1.3,5.5,2.1,7.4,2.7c3.1,1,6,0.8,8.2,0.5c2.5-0.4,7.7-3.1,8.8-6.2c1.1-3,1.1-5.6,0.8-6.2
				C90.2,75.4,89.3,75,88,74.4z"/>
		</g>
		<g>
			<path class="st4" d="M101.1,26.9c-9.8-9.8-22.9-15.2-36.9-15.2c-28.7,0-52.1,23.3-52.1,51.9c0,9.1,2.4,18.1,7,25.9l-7.4,26.9
				l27.6-7.2c7.6,4.1,16.2,6.3,24.9,6.3h0c0,0,0,0,0,0c28.7,0,52.1-23.3,52.1-51.9C116.4,49.7,110.9,36.7,101.1,26.9z M64.2,106.7
				L64.2,106.7c-7.8,0-15.4-2.1-22.1-6l-1.6-0.9L24.2,104l4.4-15.9l-1-1.6c-4.3-6.9-6.6-14.8-6.6-22.9c0-23.8,19.4-43.1,43.3-43.1
				c11.6,0,22.5,4.5,30.6,12.6c8.2,8.2,12.7,19,12.7,30.5C107.5,87.3,88.1,106.7,64.2,106.7z M88,74.4c-1.3-0.6-7.7-3.8-8.9-4.2
				c-1.2-0.4-2.1-0.6-2.9,0.6c-0.9,1.3-3.4,4.2-4.1,5.1c-0.8,0.9-1.5,1-2.8,0.3c-1.3-0.6-5.5-2-10.5-6.4c-3.9-3.4-6.5-7.7-7.2-9
				c-0.8-1.3-0.1-2,0.6-2.6c0.6-0.6,1.3-1.5,2-2.3c0.7-0.8,0.9-1.3,1.3-2.2c0.4-0.9,0.2-1.6-0.1-2.3c-0.3-0.6-2.9-7-4-9.6
				c-1.1-2.5-2.1-2.2-2.9-2.2c-0.8,0-1.6,0-2.5,0s-2.3,0.3-3.5,1.6c-1.2,1.3-4.6,4.4-4.6,10.8c0,6.4,4.7,12.5,5.3,13.4
				c0.7,0.9,9.2,14,22.3,19.6c3.1,1.3,5.5,2.1,7.4,2.7c3.1,1,6,0.8,8.2,0.5c2.5-0.4,7.7-3.1,8.8-6.2c1.1-3,1.1-5.6,0.8-6.2
				C90.2,75.4,89.3,75,88,74.4z"/>
		</g>
	</g>
</g>
</svg>
